<?xml version="1.0" standalone="no"?>
<!DOCTYPE svg PUBLIC "-//W3C//DTD SVG 20010904//EN"
 "http://www.w3.org/TR/2001/REC-SVG-20010904/DTD/svg10.dtd">
<svg version="1.0" xmlns="http://www.w3.org/2000/svg"
 width="2560.000000pt" height="2560.000000pt" viewBox="0 0 2560.000000 2560.000000"
 preserveAspectRatio="xMidYMid meet">
<metadata>
Created by potrace 1.11, written by Peter Selinger 2001-2013
</metadata>
<g transform="translate(0.000000,2560.000000) scale(0.100000,-0.100000)"
fill="#000000" stroke="none">
<path d="M0 12800 l0 -12800 2438 1 c1550 1 2417 5 2382 11 -1140 194 -2188
614 -3100 1243 -362 250 -756 564 -745 594 3 8 127 218 274 465 147 248 287
484 311 524 23 39 45 72 49 72 4 0 33 -28 66 -61 312 -320 783 -664 1269 -929
915 -498 1808 -760 2841 -835 1001 -72 1930 31 2580 287 730 287 1161 707
1345 1314 126 413 130 965 10 1370 -206 696 -833 1206 -1944 1579 -428 143
-1122 327 -2076 550 -639 149 -1285 327 -1760 484 -1011 336 -1671 778 -2065
1386 -283 437 -415 959 -415 1639 1 926 261 1693 796 2341 99 120 316 336 435
433 673 549 1613 910 2679 1027 526 58 1170 61 1675 9 850 -88 1582 -312 2325
-711 335 -180 744 -457 1038 -702 l123 -102 -20 -32 c-11 -18 -84 -142 -163
-277 -79 -135 -210 -358 -292 -496 l-149 -252 -141 142 c-646 647 -1640 1105
-2691 1241 -491 63 -1080 71 -1600 19 -675 -66 -1220 -223 -1609 -462 -472
-290 -806 -725 -960 -1250 -82 -278 -116 -611 -96 -937 12 -187 29 -301 67
-445 161 -610 637 -1036 1534 -1373 468 -176 1075 -338 2224 -592 1197 -265
1967 -493 2525 -745 787 -357 1310 -793 1655 -1383 254 -435 375 -957 375
-1612 -1 -782 -166 -1370 -541 -1925 -332 -491 -758 -849 -1376 -1159 -221
-110 -566 -237 -858 -315 -129 -34 -449 -106 -555 -124 -35 -6 1839 -10 5225
-9 2904 0 5267 2 5250 4 -105 15 -521 102 -685 144 -1021 263 -1911 692 -2753
1327 -165 124 -437 350 -437 364 0 5 113 199 252 431 138 232 281 472 318 534
l66 112 80 -80 c636 -645 1687 -1233 2714 -1518 710 -198 1513 -285 2305 -252
802 34 1430 172 1935 426 395 198 637 403 849 719 153 227 263 547 301 876 15
130 16 472 1 600 -62 536 -289 941 -719 1288 -332 267 -830 511 -1427 699
-420 132 -1130 319 -1715 453 -981 224 -1903 488 -2410 690 -301 120 -685 323
-906 480 -603 428 -959 965 -1093 1650 -45 232 -62 426 -62 728 0 607 91 1074
305 1566 313 719 880 1304 1632 1684 526 266 1033 424 1724 536 118 19 135 24
90 25 -146 3 -583 62 -790 107 -573 123 -1012 308 -1485 624 -496 332 -898
739 -1218 1232 -516 795 -805 1701 -937 2939 -50 465 -50 478 -50 3822 l0
3127 570 0 569 0 4 -3177 c3 -2223 7 -3220 15 -3318 68 -849 177 -1437 359
-1935 318 -873 793 -1479 1503 -1917 516 -318 1146 -473 1920 -473 581 1 1117
93 1520 262 658 277 1218 772 1587 1403 401 684 605 1467 695 2655 8 112 12
1044 15 3328 l4 3172 580 0 580 0 -4 -3192 c-4 -3405 -2 -3269 -51 -3773 -55
-562 -188 -1219 -343 -1690 -146 -448 -398 -962 -648 -1325 -165 -239 -341
-452 -514 -618 -658 -635 -1400 -1015 -2301 -1178 -80 -14 -146 -27 -148 -28
-1 -2 57 -6 130 -10 252 -13 555 -51 853 -107 794 -149 1554 -467 2278 -951
259 -173 621 -461 614 -488 -3 -13 -181 -317 -545 -933 l-69 -118 -84 89
c-564 602 -1489 1072 -2459 1251 -948 174 -2182 114 -2935 -142 -417 -143
-672 -294 -958 -567 -271 -259 -456 -567 -565 -940 -112 -384 -132 -883 -52
-1281 97 -480 383 -855 880 -1152 543 -326 1253 -548 2905 -913 851 -187 1517
-367 2020 -543 1040 -365 1760 -893 2158 -1583 254 -442 377 -970 377 -1628 0
-659 -146 -1254 -424 -1724 -307 -517 -702 -898 -1271 -1226 -423 -244 -961
-430 -1590 -549 -100 -19 -91 -19 2053 -20 l2152 -1 0 12800 0 12800 -12800 0
-12800 0 0 -12800z m7135 12513 c421 -59 680 -136 1020 -303 207 -102 359
-192 518 -307 874 -630 1445 -1622 1562 -2717 48 -444 -9 -1037 -141 -1480
-240 -804 -669 -1428 -1304 -1897 -295 -218 -676 -392 -1050 -479 -77 -18
-114 -31 -112 -39 3 -13 39 -71 1779 -2793 606 -950 1103 -1732 1103 -1738 0
-7 -202 -9 -651 -8 l-652 3 -1391 2172 -1391 2173 -1742 0 -1743 0 0 -2175 0
-2175 -575 0 -575 0 0 5895 0 5896 2598 -4 c2571 -3 2598 -4 2747 -24z"/>
<path d="M2940 21615 l0 -2686 2038 4 c2213 3 2074 0 2312 57 617 146 1135
585 1469 1244 223 439 330 894 331 1401 0 526 -143 1030 -423 1492 -382 630
-1001 1056 -1684 1158 -90 13 -356 15 -2073 15 l-1970 0 0 -2685z"/>
</g>
</svg>
